<?xml version="1.0" encoding="iso-8859-1"?>
<!-- Generator: Adobe Illustrator 19.0.0, SVG Export Plug-In . SVG Version: 6.00 Build 0)  -->
<svg version="1.1" id="Layer_1" xmlns="http://www.w3.org/2000/svg" xmlns:xlink="http://www.w3.org/1999/xlink" x="0px" y="0px"
	 viewBox="0 0 330.02 330.02" style="enable-background:new 0 0 330.02 330.02;" xml:space="preserve">
<g id="XMLID_340_">
	<path id="XMLID_341_" d="M315,300.01h-60v-30h60c0.006,0,0.013-0.001,0.02,0c8.284,0,15-6.716,15-15
		c0-2.691-0.709-5.218-1.95-7.401L253.416,98.302c-2.541-5.082-7.735-8.292-13.416-8.292c-5.682,0-10.876,3.21-13.417,8.292l-75,150
		c-2.325,4.649-2.076,10.172,0.657,14.594c2.733,4.422,7.561,7.114,12.76,7.114h60v30H15c-8.284,0-15,6.716-15,15
		c0,8.284,6.716,15,15,15h300c8.284,0,15-6.716,15-15C330,306.726,323.284,300.01,315,300.01z M240,138.551l50.729,101.459H189.27
		L240,138.551z"/>
	<path id="XMLID_351_" d="M72.497,145.01c16.428,0,32.525-5.652,45.326-15.916c3.551-2.847,5.617-7.152,5.617-11.703
		c0-4.551-2.066-8.856-5.617-11.703c-10.131-8.123-15.942-20.216-15.942-33.178c0-12.963,5.811-25.057,15.942-33.181
		c3.55-2.847,5.616-7.152,5.616-11.703s-2.066-8.856-5.617-11.703C105.022,5.662,88.925,0.01,72.497,0.01
		C32.522,0.01,0,32.534,0,72.511C0,112.487,32.522,145.01,72.497,145.01z M72.497,30.01c4.107,0,8.11,0.569,11.936,1.683
		c-8.114,11.882-12.552,26.017-12.552,40.818c0,14.801,4.438,28.935,12.552,40.816c-3.826,1.113-7.829,1.683-11.936,1.683
		C49.064,115.01,30,95.945,30,72.511C30,49.076,49.064,30.01,72.497,30.01z"/>
	<path id="XMLID_440_" d="M315,80.01c3.95,0,7.81-1.6,10.61-4.39c2.79-2.8,4.39-6.66,4.39-10.61c0-3.95-1.6-7.82-4.39-10.61
		c-2.8-2.79-6.66-4.39-10.61-4.39c-3.95,0-7.81,1.6-10.61,4.39c-2.79,2.79-4.39,6.66-4.39,10.61c0,3.95,1.6,7.81,4.39,10.61
		C307.19,78.41,311.05,80.01,315,80.01z"/>
	<path id="XMLID_441_" d="M240,30.01c3.95,0,7.81-1.6,10.61-4.39c2.79-2.8,4.39-6.66,4.39-10.61c0-3.95-1.6-7.81-4.39-10.61
		c-2.8-2.789-6.66-4.39-10.61-4.39c-3.95,0-7.82,1.6-10.61,4.39C226.6,7.2,225,11.06,225,15.01c0,3.95,1.6,7.81,4.39,10.61
		C232.19,28.41,236.05,30.01,240,30.01z"/>
	<path id="XMLID_443_" d="M165,80.01c3.95,0,7.81-1.6,10.61-4.39c2.79-2.8,4.39-6.66,4.39-10.61c0-3.95-1.6-7.81-4.39-10.61
		c-2.8-2.79-6.66-4.39-10.61-4.39c-3.95,0-7.81,1.6-10.61,4.39c-2.79,2.8-4.39,6.66-4.39,10.61c0,3.95,1.6,7.81,4.39,10.61
		C157.19,78.41,161.05,80.01,165,80.01z"/>
	<path id="XMLID_444_" d="M15,180.01c3.95,0,7.82-1.6,10.61-4.39c2.79-2.79,4.39-6.66,4.39-10.61c0-3.95-1.6-7.82-4.39-10.61
		c-2.79-2.789-6.66-4.39-10.61-4.39c-3.95,0-7.82,1.6-10.61,4.39C1.6,157.19,0,161.06,0,165.01c0,3.95,1.6,7.82,4.39,10.61
		C7.18,178.41,11.05,180.01,15,180.01z"/>
	<path id="XMLID_445_" d="M145,180.01c3.95,0,7.81-1.6,10.61-4.39c2.79-2.8,4.39-6.66,4.39-10.61c0-3.95-1.6-7.81-4.39-10.61
		c-2.8-2.789-6.66-4.39-10.61-4.39c-3.95,0-7.81,1.6-10.61,4.39c-2.79,2.8-4.39,6.66-4.39,10.61c0,3.95,1.6,7.81,4.39,10.61
		C137.19,178.41,141.05,180.01,145,180.01z"/>
	<path id="XMLID_446_" d="M69.39,204.4c-2.79,2.8-4.39,6.66-4.39,10.61c0,3.95,1.6,7.81,4.39,10.61c2.8,2.79,6.66,4.39,10.61,4.39
		c3.95,0,7.81-1.6,10.61-4.39c2.79-2.8,4.39-6.66,4.39-10.61c0-3.95-1.6-7.82-4.39-10.61c-2.8-2.789-6.66-4.39-10.61-4.39
		C76.05,200.01,72.18,201.61,69.39,204.4z"/>
</g>
<g>
</g>
<g>
</g>
<g>
</g>
<g>
</g>
<g>
</g>
<g>
</g>
<g>
</g>
<g>
</g>
<g>
</g>
<g>
</g>
<g>
</g>
<g>
</g>
<g>
</g>
<g>
</g>
<g>
</g>
</svg>
