<?xml version="1.0" encoding="iso-8859-1"?>
<!-- Generator: Adobe Illustrator 19.0.0, SVG Export Plug-In . SVG Version: 6.00 Build 0)  -->
<svg version="1.1" id="Layer_1" xmlns="http://www.w3.org/2000/svg" xmlns:xlink="http://www.w3.org/1999/xlink" x="0px" y="0px"
	 viewBox="0 0 512.004 512.004" style="enable-background:new 0 0 512.004 512.004;" xml:space="preserve">
<path style="fill:#B3B3B3;" d="M104.962,325.696c-4.917-10.112-8.299-21.184-9.92-33.173c-0.725-5.344-1.099-10.88-1.099-16.586
	c0-79.796,72.554-164.425,162.057-164.425s162.057,84.628,162.057,164.425c0,5.707-0.373,11.243-1.099,16.586
	c-1.621,11.989-5.003,23.061-9.92,33.173C383.476,374.101,324.736,400.49,256,400.49S128.524,374.101,104.962,325.696z M256,324.288
	c0,0,26.922-13.131,26.922-24.426c0-11.285-12.053-20.437-26.922-20.437c-14.869,0-26.922,9.152-26.922,20.437
	C229.078,311.158,256,324.288,256,324.288z"/>
<path style="fill:#666666;" d="M256,279.425c14.869,0,26.922,9.152,26.922,20.437c0,11.296-26.922,24.426-26.922,24.426
	s-26.922-13.131-26.922-24.426C229.078,288.577,241.131,279.425,256,279.425z"/>
<path d="M356.49,149.935c3.546-4.704,2.607-11.393-2.097-14.939c-0.88-0.663-1.767-1.318-2.659-1.967
	c-4.767-3.46-11.437-2.405-14.899,2.364c-3.461,4.767-2.403,11.438,2.364,14.899c0.789,0.573,1.575,1.153,2.353,1.74
	c1.923,1.45,4.177,2.15,6.413,2.15C351.198,154.181,354.394,152.716,356.49,149.935z"/>
<path d="M233.824,362.87c8.535,0,16.32-3.276,22.166-8.632c6.071,5.576,13.892,8.632,22.185,8.632
	c18.115,0,32.853-14.734,32.853-32.842v-5.74c0-5.89-4.776-10.667-10.667-10.667s-10.667,4.776-10.667,10.667v5.74
	c0,6.346-5.168,11.509-11.52,11.509c-3.073,0-5.964-1.198-8.138-3.373c-2.01-2.01-3.172-4.632-3.339-7.444
	c11.049-6.19,26.889-17.407,26.889-30.857c0-17.442-16.511-31.104-37.589-31.104s-37.589,13.663-37.589,31.104
	c0,13.449,15.839,24.666,26.887,30.856c-0.361,6.023-5.362,10.818-11.474,10.818c-3.081,0-5.974-1.198-8.148-3.373
	c-2.174-2.174-3.372-5.063-3.372-8.136v-3.243c0-5.89-4.776-10.667-10.667-10.667s-10.667,4.776-10.667,10.667v3.243
	c0,8.771,3.417,17.017,9.619,23.221C216.793,359.454,225.046,362.87,233.824,362.87z M239.768,299.403
	c0.439-4.488,7.237-9.311,16.233-9.311s15.793,4.822,16.233,9.311c-1.346,2.853-8.476,8.398-16.241,12.822
	C248.237,307.814,241.117,302.272,239.768,299.403z"/>
<path d="M222.305,236.396c0-5.89-4.776-10.667-10.667-10.667s-10.667,4.776-10.667,10.667c0,5.023-4.086,9.109-9.109,9.109
	c-5.018,0-9.099-4.086-9.099-9.109c0-5.89-4.776-10.667-10.667-10.667s-10.667,4.776-10.667,10.667
	c0,16.786,13.652,30.442,30.432,30.442C208.649,266.838,222.305,253.183,222.305,236.396z"/>
<path d="M350.57,236.396c0-5.89-4.776-10.667-10.667-10.667s-10.667,4.776-10.667,10.667c0,5.023-4.081,9.109-9.099,9.109
	c-5.023,0-9.109-4.086-9.109-9.109c0-5.89-4.776-10.667-10.667-10.667s-10.667,4.776-10.667,10.667
	c0,16.786,13.656,30.442,30.442,30.442C336.919,266.838,350.57,253.183,350.57,236.396z"/>
<path d="M5.767,363.99c1.568,0.812,3.243,1.196,4.895,1.196c3.858,0,7.584-2.102,9.482-5.765
	c14.328-27.682,36.655-45.804,66.451-54.002c1.059,4.56,2.37,9.023,3.932,13.375c-31.86,10.953-55.181,33.726-67.832,66.484
	c-2.123,5.495,0.611,11.67,6.108,13.793c1.264,0.489,2.562,0.72,3.841,0.72c4.28,0,8.318-2.595,9.952-6.827
	c10.706-27.719,29.87-46.09,57.024-54.719c26.83,45.822,84.466,72.913,156.384,72.913c71.917,0,129.553-27.09,156.385-72.914
	c27.152,8.627,46.317,26.998,57.023,54.719c1.634,4.232,5.671,6.827,9.952,6.827c1.278,0,2.577-0.231,3.841-0.72
	c5.495-2.122,8.23-8.296,6.108-13.793c-12.652-32.759-35.974-55.532-67.831-66.485c1.562-4.351,2.872-8.814,3.931-13.374
	c29.795,8.196,52.121,26.32,66.451,54.002c1.897,3.665,5.622,5.765,9.482,5.765c1.652,0,3.327-0.384,4.895-1.196
	c5.232-2.708,7.278-9.144,4.57-14.376c-17.376-33.57-45.723-56.036-82.337-65.443c0.163-2.725,0.257-5.473,0.257-8.235
	c0-41.09-17.76-83.985-48.728-117.687c-3.985-4.338-10.734-4.624-15.071-0.638c-4.338,3.985-4.624,10.734-0.638,15.071
	c27.393,29.812,43.102,67.446,43.102,103.254c0,1.455-0.034,2.903-0.087,4.346c-35.011-4.048-63.791,3.611-65.126,3.975
	c-5.683,1.548-9.037,7.41-7.489,13.094c1.548,5.683,7.404,9.037,13.094,7.489c0.284-0.078,25.853-6.884,56.651-3.412
	c-0.999,4.143-2.243,8.184-3.744,12.099c-22.522-3.875-43.72-2.13-58.216,0.233c-5.814,0.948-9.759,6.43-8.813,12.244
	c0.948,5.815,6.424,9.765,12.244,8.813c9.381-1.531,26.008-3.353,44.193-1.259c-24.495,35.481-73.343,56.266-134.1,56.266
	c-60.759,0-109.607-20.786-134.1-56.266c18.184-2.095,34.812-0.271,44.193,1.259c5.827,0.945,11.297-2.998,12.244-8.813
	c0.947-5.813-2.998-11.296-8.813-12.244c-14.498-2.364-35.697-4.108-58.216-0.233c-1.5-3.912-2.743-7.953-3.743-12.094
	c30.652-3.429,56.381,3.334,56.666,3.411c5.679,1.542,11.533-1.812,13.079-7.492c1.548-5.684-1.805-11.547-7.489-13.094
	c-1.334-0.365-30.116-8.022-65.126-3.975c-0.053-1.442-0.087-2.89-0.087-4.344c0-71.104,66.131-153.758,151.39-153.758
	c21.102,0,41.813,5.022,61.559,14.927c5.264,2.641,11.675,0.514,14.317-4.752c2.642-5.266,0.513-11.675-4.752-14.317
	c-22.74-11.407-46.67-17.191-71.124-17.191c-45.102,0-88.556,19.76-122.356,55.641c-32.009,33.979-50.367,77.518-50.367,119.45
	c0,2.762,0.094,5.509,0.256,8.235c-36.615,9.409-64.961,31.874-82.337,65.443C-1.512,354.846,0.534,361.282,5.767,363.99z"/>
<g>
</g>
<g>
</g>
<g>
</g>
<g>
</g>
<g>
</g>
<g>
</g>
<g>
</g>
<g>
</g>
<g>
</g>
<g>
</g>
<g>
</g>
<g>
</g>
<g>
</g>
<g>
</g>
<g>
</g>
</svg>
