<?xml version="1.0" encoding="iso-8859-1"?>
<!-- Generator: Adobe Illustrator 19.0.0, SVG Export Plug-In . SVG Version: 6.00 Build 0)  -->
<svg xmlns="http://www.w3.org/2000/svg" xmlns:xlink="http://www.w3.org/1999/xlink" version="1.1" id="Layer_1" x="0px" y="0px" viewBox="0 0 438.51 438.51" style="enable-background:new 0 0 438.51 438.51;" xml:space="preserve" width="512" height="512">
<g>
	<path style="fill:#61ACD2;" d="M404.675,401.221c-32.865-4.561-61.787-18.529-85.963-41.517   c-22.487-21.381-32.882-44.058-32.877-44.05c-6.085-8.601-9.28-18.649-9.28-29.117c0-27.769,22.592-50.36,50.36-50.36   s50.36,22.592,50.36,50.36c4.893,56.82,21.476,86.556,34.525,101.497l14.089,16.131L404.675,401.221z"/>
	<path style="fill:#61ACD2;" d="M41.683,250.309c-2.811-33.375-13.387-57.967-21.765-72.721L9.038,158.426l20.64,7.719   c16.222,6.067,39.368,18.273,57.51,41.97l4.523,5.908l-5.564,4.938c-7.939,7.047-14.865,14.334-20.585,21.661   c-3.468,4.455-6.508,8.868-9.03,13.107l-12.754,21.438L41.683,250.309z"/>
	<path style="fill:#61ACD2;" d="M157.405,395.057c-25.568,0-45.287-2.583-58.608-7.678c-16.901-6.463-56.212-27.649-56.212-84.652   c0-31.118,15.785-60.251,46.915-86.592c25.202-21.324,55.36-36.382,76.223-45.259l21.202-9.021l-11.049,20.219   c-6.925,12.672-10.036,23.812-13.045,34.585c-3.875,13.861-7.536,26.952-19.235,40.269c-2.165,2.474-7.583,7.066-15.622,13.671   c-2.829,2.331-4.879,4.021-5.516,4.649c-5.191,5.168-8.063,12.069-8.063,19.409c0,15.103,12.292,27.39,27.4,27.39   c7.154,0,15.596-2.547,25.808-7.788c4.588-2.352,20.646-10.924,34.771-22.541c10.985-9.021,23.225-24.467,23.225-24.467   c32.957-41.241,28.779-93.219,25.423-134.983l-0.235-3.052c-2.824-43.538,26.532-82.988,68.28-91.835   c5.476-1.158,10.955-1.744,16.289-1.744c11.87,0,23.319,2.824,34.03,8.392c4.301,2.238,7.066,6.222,7.591,10.934   c0.58,5.142-1.568,10.313-5.748,13.822c-21.145,17.786-28.608,36.861-23.482,60.024c4.475,20.23,18.125,40.526,31.327,60.153   c14.786,21.996,28.713,42.715,29.672,62.243c0.024,0.466,0.136,4.229,0.136,4.229c0.753,22.979-3.766,43.157-13.433,59.954   l-11.022,19.15l-3.793-21.768c-1.437-8.245-2.557-16.96-3.329-25.905l-0.03-0.638c-0.172-27.598-22.764-50.05-50.36-50.05   c-27.769,0-50.36,22.592-50.36,50.36c0,10.245,3.066,20.106,8.866,28.518l0.372,0.539l0.279,0.592   c1.735,3.68,11.419,23.035,31.75,42.667l9.556,9.228l-12.626,4.13c-14.82,4.848-31.889,9.046-50.734,12.477   C254.521,386.42,204.74,395.057,157.405,395.057z"/>
	<g>
		<circle cx="319.991" cy="71.816" r="8"/>
		<path d="M433.225,395.348c-0.09-0.03-9.34-3.84-19.66-17.82c-6.63-8.97-14.41-23.17-20.35-44.85    c17.06-21.22,24.99-47.86,23.59-79.53c-0.09-22.54-15.15-44.94-31.09-68.65c-31.39-46.67-47.68-77.34-9.33-109.59    c6.22-5.23,9.41-13.02,8.55-20.82c-0.83-7.42-5.15-13.67-11.86-17.15c-11.86-6.17-24.55-9.3-37.72-9.3    c-5.9,0-11.94,0.65-17.94,1.92c-45.96,9.74-77.85,52.8-74.59,100.45c0.02,0.38,0.19,2.5,0.21,2.75    c3.44,42.7,7.11,90.96-23.68,129.48l-1.03,1.3c-3.73,4.71-10.66,13.49-21.03,22c-13.53,11.12-28.94,19.35-33.34,21.61    c-8.94,4.58-16.39,6.9-22.16,6.9c-10.7,0-19.4-8.7-19.4-19.39c0-5.2,2.03-10.08,5.69-13.72c0.52-0.5,2.89-2.44,4.97-4.16    c7.4-6.08,13.75-11.38,16.56-14.57c12.89-14.68,16.79-28.63,20.92-43.39c4.37-15.64,8.89-31.81,25.33-52.03    c2.22-2.74,2.39-6.61,0.41-9.54c-1.98-2.92-5.64-4.2-9.01-3.14c-1.54,0.48-38.21,12.08-75.44,35.75    c-6.59,4.19-12.78,8.51-18.58,12.93c-33.33-43.26-82.02-50.25-84.18-50.54c-3.33-0.44-6.58,1.24-8.14,4.21    c-1.57,2.97-1.11,6.6,1.14,9.09c0.34,0.37,33.4,37.72,32.31,105.33c-0.19,11.63-0.12,22.43,0.21,32.09    c0.02,11.75,1.62,22.7,4.78,32.8c3.15,10.09,7.87,19.33,14.12,27.64c10.51,13.97,25.19,24.85,42.46,31.45    c14.25,5.44,34.93,8.2,61.46,8.2c47.98,0,98.43-8.74,108.05-10.5c23.17-4.22,43.36-9.49,60.79-15.88    c22.45,17.31,55.75,33.8,101.34,34.19c0.55,0.01,2.98,0,2.98,0c3.87-0.02,7.17-2.82,7.83-6.64    C439.045,400.408,436.875,396.668,433.225,395.348z M26.875,173.638c15.51,5.8,37.11,17.33,53.96,39.34    c-8.27,7.34-15.49,14.92-21.58,22.72c-3.55,4.56-6.81,9.25-9.6,13.94C46.745,215.088,35.875,189.488,26.875,173.638z     M262.585,376.818c-9.38,1.71-58.57,10.24-105.18,10.24c-24.57,0-43.33-2.4-55.75-7.15c-15.35-5.87-51.07-25.13-51.07-77.18    c0-65.72,78.13-107.41,118.27-124.49c-7.35,13.45-10.68,25.35-13.73,36.27c-3.78,13.52-7.05,25.2-17.54,37.14    c-2.17,2.48-10.32,9.18-14.69,12.77c-3.58,2.95-5.2,4.29-6.06,5.14c-6.73,6.7-10.44,15.61-10.44,25.1    c0,19.52,15.88,35.39,35.4,35.39c8.45,0,18.08-2.83,29.46-8.67c4.76-2.44,21.44-11.34,36.2-23.48    c11.69-9.6,19.61-19.62,23.42-24.43l0.98-1.23c34.69-43.41,30.63-97.19,27.14-140.61c-0.02-0.31-0.2-2.59-0.23-3    c-2.57-39.62,23.88-75.35,61.96-83.42c4.92-1.04,9.84-1.57,14.63-1.57c10.57,0,20.78,2.52,30.34,7.49    c2.46,1.28,3.17,3.28,3.33,4.72c0.28,2.48-0.82,5.03-2.94,6.81c-23.36,19.65-31.91,41.85-26.15,67.88    c4.8,21.7,18.88,42.64,32.5,62.89c14.11,20.99,27.47,40.85,28.32,58.17c0.03,0.58,0.11,3.42,0.13,4.08    c0.71,21.64-3.38,40.1-12.37,55.72c-1.34-7.69-2.45-16.07-3.24-25.22c-0.2-32.01-26.3-58-58.36-58    c-32.18,0-58.36,26.18-58.36,58.36c0,11.88,3.55,23.3,10.28,33.06c1.98,4.2,12.21,24.52,33.43,45.01    C297.715,369.368,281.205,373.428,262.585,376.818z M324.225,353.908c-21.55-20.49-31.02-41.35-31.11-41.55    c-0.21-0.48-0.48-0.95-0.79-1.38c-5.08-7.18-7.77-15.63-7.77-24.44c0-23.36,19-42.36,42.36-42.36c23.36,0,42.36,19,42.36,42.36    c0,0.23,0.01,0.46,0.03,0.69c5.01,58.18,22.05,89.56,36.47,106.07C374.575,388.968,347.215,375.768,324.225,353.908z"/>
	</g>
</g>















</svg>
